<svg width="186" height="24" viewBox="0 0 186 24" fill="none" xmlns="http://www.w3.org/2000/svg">
<g clip-path="url(#clip0_1_176)">
<path d="M4.19531 18H1.8125V6.57812H8.35938V8.5625H4.19531V11.5078H8.07031V13.4844H4.19531V18ZM10.3047 7.00781C10.3047 6.23177 10.737 5.84375 11.6016 5.84375C12.4661 5.84375 12.8984 6.23177 12.8984 7.00781C12.8984 7.3776 12.7891 7.66667 12.5703 7.875C12.3568 8.07812 12.0339 8.17969 11.6016 8.17969C10.737 8.17969 10.3047 7.78906 10.3047 7.00781ZM12.7891 18H10.4062V9.26562H12.7891V18ZM17.6797 18H15.2969V5.84375H17.6797V18ZM23.8672 16.2578C24.2839 16.2578 24.7839 16.1667 25.3672 15.9844V17.7578C24.7734 18.0234 24.0443 18.1562 23.1797 18.1562C22.2266 18.1562 21.5312 17.9167 21.0938 17.4375C20.6615 16.9531 20.4453 16.2292 20.4453 15.2656V11.0547H19.3047V10.0469L20.6172 9.25L21.3047 7.40625H22.8281V9.26562H25.2734V11.0547H22.8281V15.2656C22.8281 15.6042 22.9219 15.8542 23.1094 16.0156C23.3021 16.1771 23.5547 16.2578 23.8672 16.2578ZM30.7578 10.7969C30.2526 10.7969 29.8568 10.9583 29.5703 11.2812C29.2839 11.599 29.1198 12.0521 29.0781 12.6406H32.4219C32.4115 12.0521 32.2578 11.599 31.9609 11.2812C31.6641 10.9583 31.263 10.7969 30.7578 10.7969ZM31.0938 18.1562C29.6875 18.1562 28.5885 17.7682 27.7969 16.9922C27.0052 16.2161 26.6094 15.1172 26.6094 13.6953C26.6094 12.2318 26.974 11.1016 27.7031 10.3047C28.4375 9.5026 29.4505 9.10156 30.7422 9.10156C31.9766 9.10156 32.9375 9.45312 33.625 10.1562C34.3125 10.8594 34.6562 11.8307 34.6562 13.0703V14.2266H29.0234C29.0495 14.9036 29.25 15.4323 29.625 15.8125C30 16.1927 30.526 16.3828 31.2031 16.3828C31.7292 16.3828 32.2266 16.3281 32.6953 16.2188C33.1641 16.1094 33.6536 15.9349 34.1641 15.6953V17.5391C33.7474 17.7474 33.3021 17.901 32.8281 18C32.3542 18.1042 31.776 18.1562 31.0938 18.1562ZM41.4688 9.10156C41.7917 9.10156 42.0599 9.125 42.2734 9.17188L42.0938 11.4062C41.901 11.3542 41.6667 11.3281 41.3906 11.3281C40.6302 11.3281 40.0365 11.5234 39.6094 11.9141C39.1875 12.3047 38.9766 12.8516 38.9766 13.5547V18H36.5938V9.26562H38.3984L38.75 10.7344H38.8672C39.138 10.2448 39.5026 9.85156 39.9609 9.55469C40.4245 9.2526 40.9271 9.10156 41.4688 9.10156ZM52.875 9.10156C53.9062 9.10156 54.7135 9.50521 55.2969 10.3125C55.8802 11.1146 56.1719 12.2161 56.1719 13.6172C56.1719 15.0599 55.8698 16.1771 55.2656 16.9688C54.6667 17.7604 53.849 18.1562 52.8125 18.1562C51.7865 18.1562 50.9818 17.7839 50.3984 17.0391H50.2344L49.8359 18H48.0156V5.84375H50.3984V8.67188C50.3984 9.03125 50.3672 9.60677 50.3047 10.3984H50.3984C50.9557 9.53385 51.7812 9.10156 52.875 9.10156ZM52.1094 11.0078C51.5208 11.0078 51.0911 11.1901 50.8203 11.5547C50.5495 11.9141 50.4089 12.5104 50.3984 13.3438V13.6016C50.3984 14.5391 50.5365 15.2109 50.8125 15.6172C51.0938 16.0234 51.5365 16.2266 52.1406 16.2266C52.6302 16.2266 53.0182 16.0026 53.3047 15.5547C53.5964 15.1016 53.7422 14.4453 53.7422 13.5859C53.7422 12.7266 53.5964 12.0833 53.3047 11.6562C53.013 11.224 52.6146 11.0078 52.1094 11.0078ZM56.8906 9.26562H59.5L61.1484 14.1797C61.2891 14.6068 61.3854 15.112 61.4375 15.6953H61.4844C61.5417 15.1589 61.6536 14.6536 61.8203 14.1797L63.4375 9.26562H65.9922L62.2969 19.1172C61.9583 20.0286 61.474 20.7109 60.8438 21.1641C60.2188 21.6172 59.487 21.8438 58.6484 21.8438C58.237 21.8438 57.8333 21.7995 57.4375 21.7109V19.8203C57.724 19.888 58.0365 19.9219 58.375 19.9219C58.7969 19.9219 59.1641 19.7917 59.4766 19.5312C59.7943 19.276 60.0417 18.888 60.2188 18.3672L60.3594 17.9375L56.8906 9.26562Z" fill="#8C8CA1"/>
<path d="M73.5 3L73.5 21" stroke="#8C8CA1"/>
<path d="M86.0312 18H83.6094V8.59375H80.5078V6.57812H89.1328V8.59375H86.0312V18ZM98.7656 18H96.3828V12.8984C96.3828 11.638 95.9141 11.0078 94.9766 11.0078C94.3099 11.0078 93.8281 11.2344 93.5312 11.6875C93.2344 12.1406 93.0859 12.875 93.0859 13.8906V18H90.7031V5.84375H93.0859V8.32031C93.0859 8.51302 93.0677 8.96615 93.0312 9.67969L92.9766 10.3828H93.1016C93.6328 9.52865 94.4766 9.10156 95.6328 9.10156C96.6589 9.10156 97.4375 9.3776 97.9688 9.92969C98.5 10.4818 98.7656 11.2734 98.7656 12.3047V18ZM101.117 7.00781C101.117 6.23177 101.549 5.84375 102.414 5.84375C103.279 5.84375 103.711 6.23177 103.711 7.00781C103.711 7.3776 103.602 7.66667 103.383 7.875C103.169 8.07812 102.846 8.17969 102.414 8.17969C101.549 8.17969 101.117 7.78906 101.117 7.00781ZM103.602 18H101.219V9.26562H103.602V18ZM112.203 15.4062C112.203 16.3021 111.891 16.9844 111.266 17.4531C110.646 17.9219 109.716 18.1562 108.477 18.1562C107.841 18.1562 107.299 18.112 106.852 18.0234C106.404 17.9401 105.984 17.8151 105.594 17.6484V15.6797C106.036 15.888 106.534 16.0625 107.086 16.2031C107.643 16.3438 108.133 16.4141 108.555 16.4141C109.419 16.4141 109.852 16.1641 109.852 15.6641C109.852 15.4766 109.794 15.3255 109.68 15.2109C109.565 15.0911 109.367 14.9583 109.086 14.8125C108.805 14.6615 108.43 14.487 107.961 14.2891C107.289 14.0078 106.794 13.7474 106.477 13.5078C106.164 13.2682 105.935 12.9948 105.789 12.6875C105.648 12.375 105.578 11.9922 105.578 11.5391C105.578 10.763 105.878 10.1641 106.477 9.74219C107.081 9.3151 107.935 9.10156 109.039 9.10156C110.091 9.10156 111.115 9.33073 112.109 9.78906L111.391 11.5078C110.953 11.3203 110.544 11.1667 110.164 11.0469C109.784 10.9271 109.396 10.8672 109 10.8672C108.297 10.8672 107.945 11.0573 107.945 11.4375C107.945 11.651 108.057 11.8359 108.281 11.9922C108.51 12.1484 109.008 12.3802 109.773 12.6875C110.456 12.9635 110.956 13.2214 111.273 13.4609C111.591 13.7005 111.826 13.9766 111.977 14.2891C112.128 14.6016 112.203 14.974 112.203 15.4062ZM125.398 18L124.727 14.9453L123.82 11.0859H123.766L122.172 18H119.609L117.125 9.26562H119.5L120.508 13.1328C120.669 13.8255 120.833 14.7812 121 16H121.047C121.068 15.6042 121.159 14.9766 121.32 14.1172L121.445 13.4531L122.523 9.26562H125.148L126.172 13.4531C126.193 13.5677 126.224 13.737 126.266 13.9609C126.312 14.1849 126.357 14.4245 126.398 14.6797C126.44 14.9297 126.477 15.1771 126.508 15.4219C126.544 15.6615 126.565 15.8542 126.57 16H126.617C126.664 15.625 126.747 15.112 126.867 14.4609C126.987 13.8047 127.073 13.362 127.125 13.1328L128.172 9.26562H130.508L127.992 18H125.398ZM135.539 10.7969C135.034 10.7969 134.638 10.9583 134.352 11.2812C134.065 11.599 133.901 12.0521 133.859 12.6406H137.203C137.193 12.0521 137.039 11.599 136.742 11.2812C136.445 10.9583 136.044 10.7969 135.539 10.7969ZM135.875 18.1562C134.469 18.1562 133.37 17.7682 132.578 16.9922C131.786 16.2161 131.391 15.1172 131.391 13.6953C131.391 12.2318 131.755 11.1016 132.484 10.3047C133.219 9.5026 134.232 9.10156 135.523 9.10156C136.758 9.10156 137.719 9.45312 138.406 10.1562C139.094 10.8594 139.438 11.8307 139.438 13.0703V14.2266H133.805C133.831 14.9036 134.031 15.4323 134.406 15.8125C134.781 16.1927 135.307 16.3828 135.984 16.3828C136.51 16.3828 137.008 16.3281 137.477 16.2188C137.945 16.1094 138.435 15.9349 138.945 15.6953V17.5391C138.529 17.7474 138.083 17.901 137.609 18C137.135 18.1042 136.557 18.1562 135.875 18.1562ZM144.992 10.7969C144.487 10.7969 144.091 10.9583 143.805 11.2812C143.518 11.599 143.354 12.0521 143.312 12.6406H146.656C146.646 12.0521 146.492 11.599 146.195 11.2812C145.898 10.9583 145.497 10.7969 144.992 10.7969ZM145.328 18.1562C143.922 18.1562 142.823 17.7682 142.031 16.9922C141.24 16.2161 140.844 15.1172 140.844 13.6953C140.844 12.2318 141.208 11.1016 141.938 10.3047C142.672 9.5026 143.685 9.10156 144.977 9.10156C146.211 9.10156 147.172 9.45312 147.859 10.1562C148.547 10.8594 148.891 11.8307 148.891 13.0703V14.2266H143.258C143.284 14.9036 143.484 15.4323 143.859 15.8125C144.234 16.1927 144.76 16.3828 145.438 16.3828C145.964 16.3828 146.461 16.3281 146.93 16.2188C147.398 16.1094 147.888 15.9349 148.398 15.6953V17.5391C147.982 17.7474 147.536 17.901 147.062 18C146.589 18.1042 146.01 18.1562 145.328 18.1562ZM153.117 13.25L154.156 11.9219L156.602 9.26562H159.289L155.82 13.0547L159.5 18H156.75L154.234 14.4609L153.211 15.2812V18H150.828V5.84375H153.211V11.2656L153.086 13.25H153.117Z" fill="#262730"/>
<path d="M170.5 10L175.5 15L180.5 10" stroke="#262730" stroke-width="2" stroke-linecap="round" stroke-linejoin="round"/>
</g>
<defs>
<clipPath id="clip0_1_176">
<rect width="185.5" height="24" fill="white"/>
</clipPath>
</defs>
</svg>
